<?xml version="1.0" encoding="UTF-8" standalone="no"?>
<!DOCTYPE svg PUBLIC "-//W3C//DTD SVG 1.1//EN" "http://www.w3.org/Graphics/SVG/1.1/DTD/svg11.dtd">
<svg width="100%" height="100%" viewBox="0 0 142 174" version="1.1" xmlns="http://www.w3.org/2000/svg" xmlns:xlink="http://www.w3.org/1999/xlink" xml:space="preserve" xmlns:serif="http://www.serif.com/" style="fill-rule:evenodd;clip-rule:evenodd;stroke-linejoin:round;stroke-miterlimit:2;">
    <g transform="matrix(1,0,0,1,-2712.46,-1078.9)">
        <g transform="matrix(4.16667,0,0,4.16667,0,0)">
            <g transform="matrix(1,0,0,1,-14.8,-0.959991)">
                <rect x="673.34" y="271.222" width="18.875" height="15.099" style="fill:rgb(156,59,150);fill-rule:nonzero;"/>
                <rect x="673.34" y="259.896" width="18.875" height="3.776" style="fill:white;fill-rule:nonzero;"/>
                <rect x="665.79" y="267.446" width="3.775" height="18.875" style="fill:white;fill-rule:nonzero;"/>
                <rect x="695.991" y="267.446" width="3.774" height="18.875" style="fill:white;fill-rule:nonzero;"/>
                <rect x="673.34" y="290.097" width="3.776" height="7.549" style="fill:rgb(156,59,150);fill-rule:nonzero;"/>
                <rect x="692.215" y="293.871" width="3.776" height="7.551" style="fill:rgb(156,59,150);fill-rule:nonzero;"/>
                <rect x="680.89" y="290.097" width="3.775" height="7.549" style="fill:rgb(156,59,150);fill-rule:nonzero;"/>
                <rect x="688.44" y="290.097" width="3.775" height="3.774" style="fill:rgb(156,59,150);fill-rule:nonzero;"/>
                <path d="M673.34,267.446L673.34,271.222L684.665,271.222L684.665,278.771L677.116,278.771L677.116,282.547L688.44,282.547L688.44,271.222L692.215,271.222L692.215,267.446L673.34,267.446Z" style="fill:rgb(147,47,146);fill-rule:nonzero;"/>
                <rect x="677.116" y="271.222" width="7.549" height="7.549" style="fill:white;fill-rule:nonzero;"/>
                <rect x="677.116" y="271.222" width="3.774" height="3.774" style="fill:rgb(44,14,50);fill-rule:nonzero;"/>
                <rect x="669.565" y="297.646" width="3.775" height="3.776" style="fill:rgb(156,59,150);fill-rule:nonzero;"/>
                <rect x="684.665" y="297.646" width="3.775" height="3.776" style="fill:rgb(156,59,150);fill-rule:nonzero;"/>
                <rect x="669.565" y="263.672" width="3.775" height="3.774" style="fill:white;fill-rule:nonzero;"/>
                <rect x="669.565" y="286.321" width="26.426" height="3.776" style="fill:white;fill-rule:nonzero;"/>
                <rect x="692.215" y="263.672" width="3.776" height="3.774" style="fill:white;fill-rule:nonzero;"/>
            </g>
        </g>
    </g>
</svg>
