<?xml version="1.0" encoding="UTF-8" standalone="no"?>
<!DOCTYPE svg PUBLIC "-//W3C//DTD SVG 1.1//EN" "http://www.w3.org/Graphics/SVG/1.1/DTD/svg11.dtd">
<svg width="100%" height="100%" viewBox="0 0 157 197" version="1.1" xmlns="http://www.w3.org/2000/svg" xmlns:xlink="http://www.w3.org/1999/xlink" xml:space="preserve" xmlns:serif="http://www.serif.com/" style="fill-rule:evenodd;clip-rule:evenodd;stroke-linejoin:round;stroke-miterlimit:2;">
    <g transform="matrix(1,0,0,1,-2541.93,-1284.33)">
        <g transform="matrix(4.16667,0,0,4.16667,0,0)">
            <rect x="620.498" y="321.74" width="16.878" height="16.878" style="fill:rgb(67,44,131);fill-rule:nonzero;"/>
            <rect x="634.001" y="335.243" width="3.375" height="3.375" style="fill:rgb(58,39,114);fill-rule:nonzero;"/>
            <rect x="623.874" y="338.618" width="13.502" height="3.376" style="fill:rgb(58,39,114);fill-rule:nonzero;"/>
            <rect x="637.376" y="335.271" width="6.752" height="3.376" style="fill:rgb(75,49,147);fill-rule:nonzero;"/>
            <rect x="613.439" y="335.243" width="10.127" height="3.375" style="fill:rgb(253,210,13);fill-rule:nonzero;"/>
            <rect x="620.498" y="335.243" width="3.376" height="3.375" style="fill:rgb(58,39,114);fill-rule:nonzero;"/>
            <rect x="634.001" y="321.74" width="3.375" height="3.376" style="fill:rgb(58,39,114);fill-rule:nonzero;"/>
            <rect x="620.498" y="321.74" width="3.376" height="3.376" style="fill:rgb(58,39,114);fill-rule:nonzero;"/>
            <rect x="617.123" y="308.238" width="6.751" height="3.375" style="fill:white;fill-rule:nonzero;"/>
            <rect x="617.123" y="325.116" width="3.375" height="10.127" style="fill:rgb(58,39,114);fill-rule:nonzero;"/>
            <rect x="623.874" y="311.613" width="3.375" height="10.127" style="fill:rgb(75,49,147);fill-rule:nonzero;"/>
            <rect x="627.249" y="308.238" width="6.752" height="3.375" style="fill:white;fill-rule:nonzero;"/>
            <rect x="634.001" y="311.613" width="3.375" height="10.127" style="fill:rgb(75,49,147);fill-rule:nonzero;"/>
            <rect x="627.249" y="341.994" width="3.376" height="10.127" style="fill:rgb(253,210,13);fill-rule:nonzero;"/>
            <rect x="637.376" y="345.37" width="3.376" height="6.751" style="fill:rgb(253,210,13);fill-rule:nonzero;"/>
            <rect x="644.169" y="328.491" width="3.376" height="6.752" style="fill:rgb(253,210,13);fill-rule:nonzero;"/>
            <rect x="634.001" y="341.994" width="3.375" height="3.376" style="fill:rgb(253,210,13);fill-rule:nonzero;"/>
            <rect x="620.498" y="341.994" width="3.376" height="10.127" style="fill:rgb(253,210,13);fill-rule:nonzero;"/>
            <rect x="637.376" y="325.116" width="3.376" height="10.127" style="fill:rgb(58,39,114);fill-rule:nonzero;"/>
            <rect x="623.874" y="325.116" width="6.751" height="6.751" style="fill:white;fill-rule:nonzero;"/>
            <path d="M630.625,325.116L630.625,331.867L623.874,331.867L623.874,335.249L630.625,335.249L630.625,335.243L634.001,335.243L634.001,325.116L630.625,325.116Z" style="fill:rgb(75,49,147);fill-rule:nonzero;"/>
            <rect x="623.874" y="325.116" width="3.375" height="3.375" style="fill:rgb(44,14,50);fill-rule:nonzero;"/>
            <rect x="617.123" y="352.121" width="3.375" height="3.376" style="fill:white;fill-rule:nonzero;"/>
            <rect x="627.249" y="352.121" width="3.376" height="3.376" style="fill:white;fill-rule:nonzero;"/>
            <rect x="634.001" y="352.121" width="3.375" height="3.376" style="fill:white;fill-rule:nonzero;"/>
            <rect x="644.169" y="325.116" width="3.376" height="3.375" style="fill:white;fill-rule:nonzero;"/>
            <rect x="610.063" y="338.647" width="3.376" height="3.375" style="fill:white;fill-rule:nonzero;"/>
        </g>
    </g>
</svg>
