<?xml version="1.0" encoding="UTF-8" standalone="no"?>
<!DOCTYPE svg PUBLIC "-//W3C//DTD SVG 1.1//EN" "http://www.w3.org/Graphics/SVG/1.1/DTD/svg11.dtd">
<svg width="100%" height="100%" viewBox="0 0 179 179" version="1.1" xmlns="http://www.w3.org/2000/svg" xmlns:xlink="http://www.w3.org/1999/xlink" xml:space="preserve" xmlns:serif="http://www.serif.com/" style="fill-rule:evenodd;clip-rule:evenodd;stroke-linejoin:round;stroke-miterlimit:2;">
    <g transform="matrix(1,0,0,1,-1924.82,-1170.93)">
        <g transform="matrix(4.16667,0,0,4.16667,0,0)">
            <rect x="469.731" y="281.024" width="7.775" height="7.776" style="fill:white;fill-rule:nonzero;"/>
            <rect x="473.618" y="284.912" width="3.888" height="3.888" style="fill:rgb(44,14,50);fill-rule:nonzero;"/>
            <rect x="461.956" y="304.345" width="3.888" height="3.887" style="fill:rgb(75,49,147);fill-rule:nonzero;"/>
            <rect x="473.618" y="319.899" width="3.888" height="3.888" style="fill:rgb(75,49,147);fill-rule:nonzero;"/>
            <rect x="469.731" y="316.012" width="3.887" height="7.775" style="fill:rgb(67,44,131);fill-rule:nonzero;"/>
            <rect x="489.169" y="319.899" width="3.887" height="3.888" style="fill:rgb(75,49,147);fill-rule:nonzero;"/>
            <rect x="485.282" y="316.012" width="3.887" height="7.775" style="fill:rgb(67,44,131);fill-rule:nonzero;"/>
            <rect x="465.844" y="300.462" width="7.774" height="3.888" style="fill:rgb(67,44,131);fill-rule:nonzero;"/>
            <rect x="493.056" y="300.462" width="7.775" height="3.888" style="fill:rgb(67,44,131);fill-rule:nonzero;"/>
            <rect x="485.282" y="281.024" width="7.774" height="7.776" style="fill:white;fill-rule:nonzero;"/>
            <rect x="489.169" y="284.916" width="3.887" height="3.888" style="fill:rgb(44,14,50);fill-rule:nonzero;"/>
            <rect x="500.831" y="304.345" width="3.888" height="3.887" style="fill:rgb(75,49,147);fill-rule:nonzero;"/>
            <path d="M493.056,284.912L493.056,288.8L485.282,288.8L485.282,292.687L496.944,292.687L496.944,284.912L493.056,284.912Z" style="fill:rgb(75,49,147);fill-rule:nonzero;"/>
            <path d="M477.506,284.912L477.506,288.8L469.731,288.8L469.731,292.687L481.394,292.687L481.394,284.912L477.506,284.912Z" style="fill:rgb(75,49,147);fill-rule:nonzero;"/>
            <rect x="473.618" y="300.462" width="19.438" height="15.55" style="fill:rgb(75,49,147);fill-rule:nonzero;"/>
            <rect x="477.506" y="292.687" width="3.888" height="7.775" style="fill:rgb(67,44,131);fill-rule:nonzero;"/>
            <rect x="485.282" y="292.687" width="3.887" height="7.775" style="fill:rgb(67,44,131);fill-rule:nonzero;"/>
            <rect x="477.506" y="308.237" width="7.776" height="3.888" style="fill:rgb(44,14,50);fill-rule:nonzero;"/>
            <rect x="485.282" y="304.345" width="3.887" height="3.887" style="fill:rgb(44,14,50);fill-rule:nonzero;"/>
        </g>
    </g>
</svg>
