<?xml version="1.0" encoding="UTF-8" standalone="no"?>
<!DOCTYPE svg PUBLIC "-//W3C//DTD SVG 1.1//EN" "http://www.w3.org/Graphics/SVG/1.1/DTD/svg11.dtd">
<svg width="100%" height="100%" viewBox="0 0 215 246" version="1.1" xmlns="http://www.w3.org/2000/svg" xmlns:xlink="http://www.w3.org/1999/xlink" xml:space="preserve" xmlns:serif="http://www.serif.com/" style="fill-rule:evenodd;clip-rule:evenodd;stroke-linejoin:round;stroke-miterlimit:2;">
    <g transform="matrix(1,0,0,1,-2511.58,-311.608)">
        <g transform="matrix(4.16667,0,0,4.16667,0,0)">
            <path d="M624.842,89.496L606.454,89.496L606.454,115.237L610.132,115.237L610.132,118.915L621.164,118.915L621.164,115.237L624.842,115.237L624.842,89.496Z" style="fill:rgb(165,80,159);fill-rule:nonzero;"/>
            <rect x="610.132" y="93.173" width="7.356" height="7.355" style="fill:rgb(44,14,50);fill-rule:nonzero;"/>
            <rect x="610.132" y="100.528" width="7.356" height="3.677" style="fill:rgb(44,14,50);fill-rule:nonzero;"/>
            <rect x="610.132" y="111.56" width="7.356" height="3.677" style="fill:rgb(44,14,50);fill-rule:nonzero;"/>
            <rect x="610.132" y="93.173" width="3.678" height="3.678" style="fill:white;fill-rule:nonzero;"/>
            <rect x="610.132" y="96.851" width="3.678" height="3.677" style="fill:white;fill-rule:nonzero;"/>
            <rect x="602.778" y="93.173" width="3.676" height="14.71" style="fill:rgb(253,210,13);fill-rule:nonzero;"/>
            <rect x="621.164" y="93.173" width="7.356" height="14.71" style="fill:rgb(253,210,13);fill-rule:nonzero;"/>
            <rect x="624.842" y="93.173" width="3.678" height="14.71" style="fill:rgb(248,154,42);fill-rule:nonzero;"/>
            <rect x="606.454" y="85.818" width="3.678" height="3.678" style="fill:white;fill-rule:nonzero;"/>
            <rect x="617.488" y="85.818" width="3.676" height="3.678" style="fill:white;fill-rule:nonzero;"/>
            <rect x="617.488" y="107.883" width="3.676" height="3.677" style="fill:rgb(44,14,50);fill-rule:nonzero;"/>
            <rect x="621.164" y="107.883" width="3.678" height="7.354" style="fill:rgb(156,59,150);fill-rule:nonzero;"/>
            <rect x="602.778" y="82.141" width="3.676" height="3.677" style="fill:rgb(253,210,13);fill-rule:nonzero;"/>
            <rect x="621.164" y="82.141" width="3.678" height="3.677" style="fill:rgb(253,210,13);fill-rule:nonzero;"/>
            <rect x="628.52" y="126.27" width="3.677" height="3.677" style="fill:rgb(253,210,13);fill-rule:nonzero;"/>
            <rect x="646.907" y="122.592" width="3.677" height="3.678" style="fill:rgb(253,210,13);fill-rule:nonzero;"/>
            <rect x="624.842" y="129.947" width="3.678" height="3.678" style="fill:rgb(253,210,13);fill-rule:nonzero;"/>
            <rect x="650.584" y="118.915" width="3.677" height="3.677" style="fill:rgb(253,210,13);fill-rule:nonzero;"/>
            <rect x="635.874" y="126.27" width="3.678" height="7.355" style="fill:rgb(253,210,13);fill-rule:nonzero;"/>
            <rect x="643.229" y="126.27" width="3.678" height="7.355" style="fill:rgb(253,210,13);fill-rule:nonzero;"/>
            <path d="M632.197,82.141L632.197,107.883L635.874,107.883L635.874,111.56L646.907,111.56L646.907,107.883L650.584,107.883L650.584,82.141L632.197,82.141Z" style="fill:rgb(165,80,159);fill-rule:nonzero;"/>
            <rect x="635.874" y="85.818" width="7.355" height="7.355" style="fill:rgb(44,14,50);fill-rule:nonzero;"/>
            <rect x="635.874" y="93.173" width="7.355" height="3.678" style="fill:rgb(44,14,50);fill-rule:nonzero;"/>
            <rect x="635.874" y="104.205" width="7.355" height="3.678" style="fill:rgb(44,14,50);fill-rule:nonzero;"/>
            <rect x="635.874" y="85.818" width="3.678" height="3.678" style="fill:white;fill-rule:nonzero;"/>
            <rect x="635.874" y="89.496" width="3.678" height="3.677" style="fill:white;fill-rule:nonzero;"/>
            <rect x="628.52" y="85.818" width="3.677" height="14.71" style="fill:rgb(253,210,13);fill-rule:nonzero;"/>
            <rect x="646.907" y="85.818" width="7.354" height="14.71" style="fill:rgb(253,210,13);fill-rule:nonzero;"/>
            <rect x="650.584" y="85.818" width="3.677" height="14.71" style="fill:rgb(248,154,42);fill-rule:nonzero;"/>
            <rect x="632.197" y="78.464" width="3.677" height="3.677" style="fill:white;fill-rule:nonzero;"/>
            <rect x="643.229" y="78.464" width="3.678" height="3.677" style="fill:white;fill-rule:nonzero;"/>
            <rect x="643.229" y="100.528" width="3.678" height="3.677" style="fill:rgb(44,14,50);fill-rule:nonzero;"/>
            <rect x="646.907" y="100.528" width="3.677" height="7.525" style="fill:rgb(156,59,150);fill-rule:nonzero;"/>
            <rect x="628.52" y="74.786" width="3.677" height="3.678" style="fill:rgb(253,210,13);fill-rule:nonzero;"/>
            <rect x="646.907" y="74.786" width="3.677" height="3.678" style="fill:rgb(253,210,13);fill-rule:nonzero;"/>
            <rect x="632.197" y="118.915" width="14.71" height="7.355" style="fill:rgb(165,80,159);fill-rule:nonzero;"/>
            <rect x="643.229" y="111.56" width="3.678" height="7.355" style="fill:white;fill-rule:nonzero;"/>
            <rect x="624.842" y="115.237" width="7.355" height="3.678" style="fill:white;fill-rule:nonzero;"/>
        </g>
    </g>
</svg>
